<svg xmlns="http://www.w3.org/2000/svg" width="37" height="37" viewBox="0 0 37 37"><g transform="translate(0 0)"><rect width="37" height="37" rx="2" transform="translate(0 0)" fill="none"/><g transform="translate(0 8.094)"><path d="M23.183,12.781h-.058a4.554,4.554,0,0,0-3.17,1.288,6.938,6.938,0,0,1-6.08,10.274H10.406a6.938,6.938,0,0,1,0-13.875h2.088a12.764,12.764,0,0,1,3.165-3.3A10.436,10.436,0,0,0,13.875,7H10.406a10.406,10.406,0,0,0,0,20.813h3.469a10.383,10.383,0,0,0,9.308-15.031Z" transform="translate(0 -7)" fill="#00d4ff"/><path d="M24.875,7H21.406A10.383,10.383,0,0,0,12.1,22.031h.058a4.557,4.557,0,0,0,3.172-1.287,6.937,6.937,0,0,1,6.078-10.276h3.469a6.938,6.938,0,0,1,0,13.875h-2.1a12.78,12.78,0,0,1-3.122,3.309,10.383,10.383,0,0,0,1.752.16h3.469A10.406,10.406,0,1,0,24.875,7Z" transform="translate(1.719 -7)" fill="#a0fff3"/></g></g></svg>