<svg xmlns="http://www.w3.org/2000/svg" width="32.734" height="32.734" viewBox="0 0 32.734 32.734"><g transform="translate(-1 -1)"><g transform="translate(1 1)"><path d="M17.367,33.734A16.367,16.367,0,1,1,33.734,17.367,16.367,16.367,0,0,1,17.367,33.734Zm0-29.888A13.521,13.521,0,1,0,30.888,17.367,13.521,13.521,0,0,0,17.367,3.846Z" transform="translate(-1 -1)" fill="#00d4ff"/><path d="M20.539,14.558a5.266,5.266,0,0,1,2.4.519l1.587.8,1.607-3.174-1.587-.8a8.782,8.782,0,0,0-4.006-.9C15.192,11,12,14.457,12,20.251S15.192,29.5,20.539,29.5a8.782,8.782,0,0,0,4.006-.9l1.587-.8-1.608-3.174-1.587.8a5.266,5.266,0,0,1-2.4.519c-1.232,0-4.981,0-4.981-5.693S19.308,14.558,20.539,14.558Z" transform="translate(-4.172 -3.883)" fill="#a0fff3"/></g></g></svg>