<svg xmlns="http://www.w3.org/2000/svg" width="32" height="32" viewBox="0 0 32 32"><rect width="32" height="32" rx="2" fill="none"/><g transform="translate(1 2)"><path d="M26,29H3V8h7V6H2A1,1,0,0,0,1,7V30a1,1,0,0,0,1,1H27a1,1,0,0,0,1-1V20H26Z" transform="translate(-1 -2)" fill="#00d4ff"/><path d="M30.827,11.622l-11-9.5A.5.5,0,0,0,19,2.5V8.024C11.776,8.434,7,10.977,7,21.5a.5.5,0,0,0,.354.478A.488.488,0,0,0,7.5,22a.5.5,0,0,0,.414-.22C10.283,18.269,12.235,16.1,19,16v5.5a.5.5,0,0,0,.827.378l11-9.5a.5.5,0,0,0,0-.756Z" transform="translate(-1 -2)" fill="#a0fff3"/></g></svg>