<svg xmlns="http://www.w3.org/2000/svg" version="1.1" xmlns:xlink="http://www.w3.org/1999/xlink" xmlns:svgjs="http://svgjs.com/svgjs" width="1800" height="750" preserveAspectRatio="none" viewBox="0 0 1440 750">
    <g mask="url(&quot;#SvgjsMask1022&quot;)" fill="none">
        <path d="M -540.5619625744238,190 C -396.56,294.6 -108.56,684.8 179.43803742557623,713 C 467.44,741.2 611.44,377.4 899.4380374255762,331 C 1187.44,284.6 1511.33,494 1619.438037425576,481 C 1727.55,468 1475.89,309 1440,266" stroke="rgba(255, 152, 113, 1)" stroke-width="2"></path>
        <path d="M -783.0428510067645,150 C -639.04,214.8 -351.04,445.8 -63.042851006764465,474 C 224.96,502.2 368.96,299.6 656.9571489932355,291 C 944.96,282.4 1220.35,435.2 1376.9571489932355,431 C 1533.57,426.8 1427.39,302.2 1440,270" stroke="rgba(255, 220, 122, 1)" stroke-width="2"></path>
        <path d="M -922.0587596649797,476 C -778.06,392.4 -490.06,66.8 -202.0587596649797,58 C 85.94,49.2 229.94,438.8 517.9412403350203,432 C 805.94,425.2 1053.53,24.4 1237.9412403350202,24 C 1422.35,23.6 1399.59,348.8 1440,430" stroke="rgba(30, 162, 233, 1)" stroke-width="2"></path>
        <path d="M -741.8126353003056,424 C -597.81,358.8 -309.81,43.4 -21.81263530030561,98 C 266.19,152.6 410.19,644 698.1873646996944,697 C 986.19,750 1269.82,392.8 1418.1873646996944,363 C 1566.55,333.2 1435.64,511 1440,548" stroke="rgba(53, 220, 220, 1)" stroke-width="2"></path>
    </g>
    <defs>
        <mask id="SvgjsMask1022">
            <rect width="1440" height="750" fill="#ffffff"></rect>
        </mask>
    </defs>
</svg>